<svg id="visual" viewBox="0 0 1090 5000" width="1090" height="5000" xmlns="http://www.w3.org/2000/svg" xmlns:xlink="http://www.w3.org/1999/xlink" version="1.1"><g><g transform="translate(939 2967)"><path d="M239.8 -90.3C267.3 6.5 216 116.6 136.4 170.2C56.9 223.8 -50.8 221 -138.8 163.6C-226.8 106.1 -295 -6 -268.6 -101.4C-242.2 -196.8 -121.1 -275.5 -7.4 -273.1C106.2 -270.7 212.4 -187.1 239.8 -90.3Z" stroke="#FCD9AA" fill="none" stroke-width="48"></path></g><g transform="translate(14 4614)"><path d="M164.6 -56.2C191.1 28.3 175.3 123.9 118.9 165.2C62.6 206.4 -34.3 193.5 -92.7 146.6C-151 99.7 -171 18.8 -149.1 -59.2C-127.2 -137.1 -63.6 -212.3 2.7 -213.1C69 -214 138 -140.6 164.6 -56.2Z" stroke="#FCD9AA" fill="none" stroke-width="48"></path></g><g transform="translate(133 3688)"><path d="M188.1 -67.5C216.7 27.1 194.3 131.9 120.6 191.5C46.8 251.2 -78.3 265.6 -161.4 208.5C-244.4 151.4 -285.4 22.7 -251.4 -79.2C-217.5 -181.1 -108.8 -256.1 -14.5 -251.4C79.7 -246.6 159.4 -162.2 188.1 -67.5Z" stroke="#FCD9AA" fill="none" stroke-width="48"></path></g><g transform="translate(953 4393)"><path d="M183.8 -52.9C214.5 34.7 199.3 144 137 189.5C74.8 234.9 -34.6 216.5 -108 160.4C-181.4 104.3 -218.9 10.5 -194.9 -67.9C-170.9 -146.3 -85.5 -209.4 -4.4 -207.9C76.6 -206.5 153.2 -140.6 183.8 -52.9Z" stroke="#FCD9AA" fill="none" stroke-width="48"></path></g><g transform="translate(1052 13)"><path d="M213.3 -63.7C241.6 17.8 205.7 125.8 130.2 181C54.7 236.3 -60.4 238.9 -125.6 187.9C-190.8 137 -206.2 32.5 -177 -50.4C-147.7 -133.2 -73.9 -194.4 9.3 -197.4C92.5 -200.4 185 -145.3 213.3 -63.7Z" stroke="#FCD9AA" fill="none" stroke-width="48"></path></g><g transform="translate(584 1298)"><path d="M198.5 -75C223.1 11.2 185.4 107.2 109.5 165.8C33.7 224.5 -80.2 245.8 -146.8 198.3C-213.5 150.8 -232.8 34.5 -200.4 -62.4C-168.1 -159.3 -84 -236.6 1.5 -237.1C87 -237.6 173.9 -161.2 198.5 -75Z" stroke="#FCD9AA" fill="none" stroke-width="48"></path></g><g transform="translate(250 470)"><path d="M164.4 -50.6C189.7 24.6 170.9 116.9 104.2 172C37.6 227.2 -76.8 245.1 -138.1 198.6C-199.5 152 -207.8 40.9 -175.9 -43.3C-144.1 -127.4 -72 -184.6 -1.3 -184.2C69.5 -183.8 139 -125.8 164.4 -50.6Z" stroke="#FCD9AA" fill="none" stroke-width="48"></path></g><g transform="translate(27 2621)"><path d="M125.6 -40.8C142.7 11.7 122.5 76.3 74.9 113.3C27.3 150.3 -47.8 159.8 -91.7 127.6C-135.7 95.3 -148.4 21.5 -127.9 -35.7C-107.4 -92.9 -53.7 -133.4 0.3 -133.5C54.3 -133.6 108.6 -93.2 125.6 -40.8Z" stroke="#FCD9AA" fill="none" stroke-width="48"></path></g></g></svg>